<svg width="1008" height="258" viewBox="0 0 1008 258" fill="none" xmlns="http://www.w3.org/2000/svg">
<path fill-rule="evenodd" clip-rule="evenodd" d="M113.68 21.3292C145.738 19.1071 181.075 13.3827 204.174 35.6942C229.996 60.6355 237.183 99.1644 230.821 134.475C224.057 172.024 207.079 215.208 170.106 224.794C135.469 233.775 113.596 190.202 82.2274 173.003C54.8825 158.01 13.1843 162.424 2.77994 133.052C-8.06778 102.429 14.7782 70.3033 37.6764 47.2353C57.5051 27.2594 85.584 23.2768 113.68 21.3292Z" fill="#E2E2E2"/>
<path fill-rule="evenodd" clip-rule="evenodd" d="M341.367 0.39039C356.687 2.0328 368.602 12.3049 379.556 23.119C390.593 34.0157 402.603 45.7395 402.989 61.2283C403.382 76.9663 393.105 90.6131 381.505 101.283C370.432 111.468 356.262 115.694 341.367 117.91C322.77 120.675 302.097 126.719 287.169 115.312C271.279 103.168 265.856 81.1567 267.196 61.2283C268.458 42.4486 279.413 25.8968 293.984 13.9452C307.179 3.12209 324.384 -1.43025 341.367 0.39039Z" fill="#E2E2E2"/>
<path fill-rule="evenodd" clip-rule="evenodd" d="M494.974 76.1408C519.944 75.4109 548.781 70.5202 565.968 88.6947C583.005 106.711 578.153 135.368 574.15 159.868C570.887 179.845 558.696 195.279 545.986 211.009C530.897 229.684 518.863 255.842 494.974 257.861C470.453 259.934 451.419 238.406 434.569 220.426C418.411 203.186 404.348 183.493 403.133 159.868C401.859 135.083 409.688 109.424 428.004 92.7275C445.689 76.6044 471.08 76.8392 494.974 76.1408Z" fill="#E2E2E2"/>
<path fill-rule="evenodd" clip-rule="evenodd" d="M262.863 136.198C274.195 135.31 287.411 137.181 294.034 146.506C300.335 155.378 292.299 167.058 292.531 177.972C292.774 189.396 302.523 201.938 295.402 210.82C288.251 219.737 274.057 216.954 262.863 214.974C253.752 213.363 246.576 207.617 240.025 201.026C233.459 194.419 226.805 187.303 226.088 177.972C225.323 168.024 229.618 158.499 236.184 151.041C243.196 143.076 252.338 137.023 262.863 136.198Z" fill="#E2E2E2"/>
<path fill-rule="evenodd" clip-rule="evenodd" d="M699.598 17.3965C721.789 14.5045 746.174 -1.103 763.988 12.4682C782.156 26.309 781.704 54.4555 777.827 76.9928C774.528 96.1689 758.427 108.435 745.052 122.542C731.081 137.278 719.703 156.808 699.598 159.503C677.709 162.437 655.907 152.069 640.104 136.611C624.114 120.972 613.217 99.2911 615.242 76.9928C617.144 56.0509 632.878 39.4368 650.029 27.3201C664.345 17.206 682.228 19.6603 699.598 17.3965Z" fill="#E2E2E2"/>
<path fill-rule="evenodd" clip-rule="evenodd" d="M762.397 147.051C770.754 146.216 775.896 155.727 781.512 161.986C786.679 167.744 793.286 173.407 792.99 181.145C792.7 188.746 785.114 193.18 780.101 198.89C774.473 205.301 770.909 215.633 762.397 215.989C753.837 216.348 748.048 207.483 743.147 200.439C739.205 194.774 737.446 188.016 738.153 181.145C738.788 174.977 743.157 170.51 746.748 165.46C751.601 158.636 754.077 147.883 762.397 147.051Z" fill="#E2E2E2"/>
<path fill-rule="evenodd" clip-rule="evenodd" d="M912.648 14.6881C933.682 18.3428 952.714 25.8725 968.958 39.7888C987.024 55.2665 1008.56 72.52 1007.99 96.3686C1007.42 120.02 984.471 135.227 966.322 150.3C950.493 163.447 932.72 171.187 912.648 175.551C884.389 181.694 850.639 199.72 829.334 180.081C808.051 160.461 826.14 125.384 826.752 96.3686C827.339 68.4911 812.636 35.2968 832.791 16.1303C852.893 -2.98467 885.376 9.94977 912.648 14.6881Z" fill="#E2E2E2"/>
</svg>
